<?xml version="1.0" encoding="utf-8"?>
<!-- Generator: Adobe Illustrator 24.3.0, SVG Export Plug-In . SVG Version: 6.00 Build 0)  -->
<svg version="1.1" id="Layer_1" xmlns="http://www.w3.org/2000/svg" xmlns:xlink="http://www.w3.org/1999/xlink" x="0px" y="0px"
	 viewBox="0 0 1920 1080" style="enable-background:new 0 0 1920 1080;" xml:space="preserve">
<style type="text/css">
	.st0{fill:#1C2749;}
	.st1{fill:#169CFF;}
</style>
<g>
	<path class="st0" d="M326.1,755.5c-29.9,0-58.2-5.7-84.4-17.2c-26-11.3-48.9-26.8-68.1-46c-19.4-19.4-34.9-42.3-46-68.1
		c-11.3-26.2-17.2-54.3-17.2-83.5c0-29.9,5.7-58.2,17.2-84.4c11.3-26,26.8-48.9,46-68.1c19.2-19.2,42.3-34.9,68.1-46
		c26.2-11.3,54.5-17.2,84.4-17.2c27.9,0,54.5,5,79.4,15.3c12.9,5.2,25.1,11.6,36.6,19.2v-25.7h106.9v412.2H442.2V721
		c-11.6,7.4-23.8,14-36.6,19.2C380.7,750.3,353.8,755.5,326.1,755.5z M329.6,419.4c-15.1,0-29.4,3.3-43,9.4
		c-13.7,6.3-26,15.1-36,25.7s-18.3,23.8-24.4,38.6c-6.1,14.6-8.9,30.5-8.9,47.3c0,16.6,3.1,32.5,8.9,46.9
		c6.1,14.6,14.2,27.5,24.4,38.2c10,10.7,22.2,19.4,36,25.7c13.5,6.3,27.9,9.4,43,9.4c15.5,0,29.9-3.1,43.2-9.4
		c13.7-6.5,26-15.1,36.2-26c10.3-10.7,18.3-23.3,24.2-38c5.9-14.4,8.7-30.3,8.7-47.1c0-16.8-3.1-32.7-8.7-47.6
		c-5.9-14.6-14-27.5-24.2-38.2c-10.3-10.7-22.5-19.4-36.2-26C359.7,422.7,345.1,419.4,329.6,419.4z"/>
	<rect x="592.7" y="189.7" class="st0" width="106.9" height="557.1"/>
	<path class="st0" d="M743.2,890.3V333.2h106.9v26c11.6-7.6,24-14.2,36.9-19.4c24.6-10,51.5-15.3,79.8-15.3
		c29.4,0,57.6,5.7,83.5,17.2c26,11.3,48.9,26.8,68.1,46c19.2,19.2,34.9,42.3,46,68.1c11.3,26.2,17.2,54.5,17.2,84.4
		c0,29.4-5.7,57.6-17.2,83.8c-11.3,26-26.8,48.9-46,68.1c-19.4,19.4-42.3,34.9-68.1,46c-26.2,11.3-54.3,17.2-83.8,17.2
		c-28.4,0-55.2-5-79.8-15.3c-12.9-5.2-25.3-11.8-36.9-19.4v169.5H743.2V890.3z M962.4,419.4c-15.1,0-29.4,3.3-43,9.4
		c-13.7,6.3-26,15.1-36,25.7s-18.3,23.8-24.4,38.6c-6.1,14.6-8.9,30.5-8.9,47.3c0,16.6,3.1,32.5,8.9,46.9
		c6.1,14.6,14.2,27.5,24.4,38.2c10,10.7,22.2,19.4,36,25.7c13.5,6.3,27.9,9.4,43,9.4c15.5,0,29.9-3.1,43.2-9.4
		c13.7-6.5,26-15.1,36.2-26c10.3-10.7,18.3-23.3,24.2-38c5.9-14.4,8.7-30.3,8.7-47.1c0-16.8-3.1-32.7-8.7-47.6
		c-5.9-14.6-14-27.5-24.2-38.2s-22.5-19.4-36.2-26C992.5,422.7,977.9,419.4,962.4,419.4z"/>
	<path class="st0" d="M1438.8,755.5c-29.9,0-58.2-5.7-84.4-17.2c-26-11.3-48.9-26.8-68.1-46c-19.4-19.4-34.9-42.3-46-68.1
		c-11.3-26.2-17.2-54.3-17.2-83.5c0-29.9,5.7-58.2,17.2-84.4c11.3-26,26.8-48.9,46-68.1c19.2-19.2,42.3-34.9,68.1-46
		c26.2-11.3,54.5-17.2,84.4-17.2c27.9,0,54.5,5,79.4,15.3c12.9,5.2,25.1,11.6,36.6,19.2v-25.7h106.9v412.2h-106.9V721
		c-11.6,7.4-23.8,14-36.6,19.2C1493.3,750.3,1466.7,755.5,1438.8,755.5z M1442.5,419.4c-15.1,0-29.4,3.3-43,9.4
		c-13.7,6.3-26,15.1-36,25.7s-18.3,23.8-24.4,38.6c-6.1,14.6-8.9,30.5-8.9,47.3c0,16.6,3.1,32.5,8.9,46.9
		c6.1,14.6,14.2,27.5,24.4,38.2c10,10.7,22.2,19.4,36,25.7c13.5,6.3,27.9,9.4,43,9.4c15.5,0,29.9-3.1,43.2-9.4
		c13.7-6.5,26-15.1,36.2-26c10.3-10.7,18.3-23.3,24.2-38c5.9-14.4,8.7-30.3,8.7-47.1c0-16.8-3.1-32.7-8.7-47.6
		c-5.9-14.6-14-27.5-24.2-38.2c-10.3-10.7-22.5-19.4-36.2-26C1472.4,422.7,1457.7,419.4,1442.5,419.4z"/>
	<rect x="1702.9" y="638.8" class="st1" width="106.7" height="106.7"/>
	<rect x="1702.9" y="485.9" class="st1" width="106.7" height="106.7"/>
	<rect x="1702.9" y="333" class="st1" width="106.7" height="106.7"/>
</g>
</svg>
