<svg width="31" height="31" viewBox="0 0 31 31" fill="none" xmlns="http://www.w3.org/2000/svg">
<g clip-path="url(#clip0_6291_8356)">
<path d="M15.0845 27.2051C21.2977 27.2051 26.3345 22.1683 26.3345 15.9551C26.3345 9.74187 21.2977 4.70508 15.0845 4.70508C8.87127 4.70508 3.83447 9.74187 3.83447 15.9551C3.83447 22.1683 8.87127 27.2051 15.0845 27.2051Z" fill="#1E55A8"/>
<path d="M15.0845 23.4551C15.8611 23.4551 16.4907 22.8255 16.4907 22.0488C16.4907 21.2722 15.8611 20.6426 15.0845 20.6426C14.3078 20.6426 13.6782 21.2722 13.6782 22.0488C13.6782 22.8255 14.3078 23.4551 15.0845 23.4551Z" fill="white"/>
<path d="M15.0845 17.8301V16.8926C15.7334 16.8926 16.3678 16.7001 16.9074 16.3396C17.447 15.979 17.8676 15.4666 18.116 14.867C18.3643 14.2674 18.4293 13.6077 18.3027 12.9712C18.1761 12.3347 17.8636 11.75 17.4047 11.2911C16.9458 10.8322 16.3611 10.5197 15.7246 10.3931C15.0881 10.2665 14.4284 10.3315 13.8288 10.5798C13.2292 10.8282 12.7168 11.2488 12.3562 11.7884C11.9957 12.328 11.8032 12.9624 11.8032 13.6113" stroke="white" stroke-width="1.4164" stroke-linecap="round" stroke-linejoin="round"/>
</g>
<defs>
<clipPath id="clip0_6291_8356">
<rect width="30" height="30" fill="white" transform="translate(0.0844727 0.955078)"/>
</clipPath>
</defs>
</svg>
