<svg width="80" height="80" viewBox="0 0 80 80" fill="none" xmlns="http://www.w3.org/2000/svg">
<path d="M0 40C0 17.9086 17.9086 0 40 0C62.0914 0 80 17.9086 80 40C80 62.0914 62.0914 80 40 80C17.9086 80 0 62.0914 0 40Z" fill="#E82121" fill-opacity="0.08"/>
<path d="M4 40C4 20.1178 20.1178 4 40 4C59.8823 4 76 20.1178 76 40C76 59.8823 59.8823 76 40 76C20.1178 76 4 59.8823 4 40Z" fill="#C42A2A" fill-opacity="0.22"/>
<path d="M8 40C8 22.3269 22.3269 8 40 8C57.6731 8 72 22.3269 72 40C72 57.6731 57.6731 72 40 72C22.3269 72 8 57.6731 8 40Z" fill="#D62334"/>
<path d="M36 28L44 28M28 32L52 32M49.3333 32L48.3983 46.0257C48.258 48.13 48.1879 49.1822 47.7334 49.98C47.3332 50.6824 46.7297 51.247 46.0022 51.5996C45.176 52 44.1215 52 42.0125 52H37.9875C35.8785 52 34.824 52 33.9978 51.5996C33.2703 51.247 32.6668 50.6824 32.2666 49.98C31.8121 49.1822 31.742 48.13 31.6017 46.0257L30.6667 32M37.3333 38V44.6667M42.6667 38V44.6667" stroke="white" stroke-width="2" stroke-linecap="round" stroke-linejoin="round"/>
</svg>
