<svg width="15" height="20" viewBox="0 0 15 20" fill="none" xmlns="http://www.w3.org/2000/svg">
<path d="M9.16659 2.0332V5.47532C9.16659 5.94203 9.16659 6.17539 9.25741 6.35365C9.33731 6.51045 9.46479 6.63793 9.62159 6.71783C9.79985 6.80865 10.0332 6.80865 10.4999 6.80865H13.942M10.8333 10.9753H4.16659M10.8333 14.3086H4.16659M5.83325 7.64193H4.16659M9.16659 1.80859H4.83325C3.43312 1.80859 2.73306 1.80859 2.19828 2.08108C1.72787 2.32076 1.34542 2.70321 1.10574 3.17362C0.833252 3.7084 0.833252 4.40846 0.833252 5.80859V14.4753C0.833252 15.8754 0.833252 16.5755 1.10574 17.1102C1.34542 17.5806 1.72787 17.9631 2.19828 18.2028C2.73306 18.4753 3.43312 18.4753 4.83325 18.4753H10.1666C11.5667 18.4753 12.2668 18.4753 12.8016 18.2028C13.272 17.9631 13.6544 17.5806 13.8941 17.1102C14.1666 16.5755 14.1666 15.8754 14.1666 14.4753V6.80859L9.16659 1.80859Z" stroke="#1E55A8" stroke-width="1.66667" stroke-linecap="round" stroke-linejoin="round"/>
</svg>
