<svg width="23" height="23" viewBox="0 0 23 23" fill="none" xmlns="http://www.w3.org/2000/svg">
<path d="M12.5313 11.6426C12.5313 11.8465 12.4708 12.0459 12.3575 12.2155C12.2441 12.3851 12.0831 12.5173 11.8946 12.5953C11.7062 12.6734 11.4989 12.6938 11.2988 12.654C11.0988 12.6142 10.915 12.516 10.7708 12.3718C10.6266 12.2276 10.5284 12.0438 10.4886 11.8438C10.4488 11.6437 10.4692 11.4364 10.5472 11.2479C10.6253 11.0595 10.7575 10.8984 10.9271 10.7851C11.0967 10.6718 11.296 10.6113 11.5 10.6113C11.7735 10.6113 12.0358 10.72 12.2292 10.9134C12.4226 11.1068 12.5313 11.3691 12.5313 11.6426ZM11.5 6.83008C11.704 6.83008 11.9033 6.7696 12.0729 6.65628C12.2425 6.54297 12.3747 6.38191 12.4528 6.19347C12.5308 6.00503 12.5512 5.79768 12.5114 5.59764C12.4716 5.3976 12.3734 5.21385 12.2292 5.06962C12.085 4.9254 11.9012 4.82718 11.7012 4.78739C11.5011 4.7476 11.2938 4.76802 11.1054 4.84608C10.9169 4.92413 10.7559 5.05631 10.6425 5.2259C10.5292 5.39549 10.4688 5.59487 10.4688 5.79883C10.4688 6.07233 10.5774 6.33464 10.7708 6.52803C10.9642 6.72143 11.2265 6.83008 11.5 6.83008ZM11.5 16.4551C11.296 16.4551 11.0967 16.5156 10.9271 16.6289C10.7575 16.7422 10.6253 16.9032 10.5472 17.0917C10.4692 17.2801 10.4488 17.4875 10.4886 17.6875C10.5284 17.8876 10.6266 18.0713 10.7708 18.2155C10.915 18.3598 11.0988 18.458 11.2988 18.4978C11.4989 18.5376 11.7062 18.5171 11.8946 18.4391C12.0831 18.361 12.2441 18.2288 12.3575 18.0593C12.4708 17.8897 12.5313 17.6903 12.5313 17.4863C12.5313 17.2128 12.4226 16.9505 12.2292 16.7571C12.0358 16.5637 11.7735 16.4551 11.5 16.4551Z" fill="#4B5564"/>
</svg>
