<svg width="13" height="13" viewBox="0 0 13 13" fill="none" xmlns="http://www.w3.org/2000/svg">
<path d="M9.50001 5.64273L7.50001 3.64273M1.75 11.3927L3.44218 11.2047C3.64893 11.1817 3.7523 11.1703 3.84892 11.139C3.93464 11.1112 4.01622 11.072 4.09144 11.0224C4.17623 10.9665 4.24977 10.893 4.39686 10.7459L11 4.14273C11.5523 3.59045 11.5523 2.69501 11 2.14273C10.4477 1.59044 9.5523 1.59044 9.00001 2.14273L2.39686 8.74587C2.24977 8.89296 2.17623 8.9665 2.12032 9.05129C2.07072 9.12651 2.03151 9.20809 2.00376 9.29381C1.97248 9.39043 1.96099 9.4938 1.93802 9.70055L1.75 11.3927Z" stroke="#1E55A8" stroke-linecap="round" stroke-linejoin="round"/>
</svg>
