<svg width="17" height="17" viewBox="0 0 17 17" fill="none" xmlns="http://www.w3.org/2000/svg">
<path d="M8.49998 15.8088H16M1 15.8088H2.39545C2.8031 15.8088 3.00693 15.8088 3.19874 15.7627C3.3688 15.7219 3.53138 15.6546 3.6805 15.5632C3.84869 15.4601 3.99282 15.316 4.28107 15.0277L14.75 4.55878C15.4404 3.86843 15.4404 2.74914 14.75 2.05878C14.0597 1.36843 12.9404 1.36843 12.25 2.05878L1.78105 12.5277C1.4928 12.816 1.34867 12.9601 1.2456 13.1283C1.15422 13.2774 1.08688 13.44 1.04605 13.6101C1 13.8019 1 14.0057 1 14.4134V15.8088Z" stroke="#6D7A8D" stroke-width="1.3" stroke-linecap="round" stroke-linejoin="round"/>
</svg>
