<svg width="25" height="25" viewBox="0 0 25 25" fill="none" xmlns="http://www.w3.org/2000/svg">
<g clip-path="url(#clip0_6291_8390)">
<path d="M3.71355 20.9877H22.23C22.8319 20.987 23.4089 20.7476 23.8345 20.322C24.26 19.8964 24.4994 19.3194 24.5 18.7175V7.28192C24.4994 6.68006 24.26 6.10302 23.8345 5.67742C23.4089 5.25182 22.8319 5.01241 22.23 5.01172H3.71355C3.11169 5.01241 2.53468 5.25182 2.10912 5.67742C1.68355 6.10302 1.4442 6.68006 1.44357 7.28192V18.7175C1.4442 19.3194 1.68355 19.8964 2.10912 20.322C2.53468 20.7476 3.11169 20.987 3.71355 20.9877ZM22.23 5.87937C22.6019 5.87977 22.9583 6.02767 23.2213 6.29062C23.4842 6.55357 23.632 6.91008 23.6324 7.28192V18.7175C23.632 19.0893 23.4842 19.4459 23.2213 19.7088C22.9583 19.9718 22.6019 20.1197 22.23 20.1201H3.71355C3.34171 20.1197 2.98523 19.9718 2.72232 19.7088C2.45941 19.4459 2.31156 19.0893 2.31122 18.7175V7.28192C2.31156 6.91008 2.45941 6.55357 2.72232 6.29062C2.98523 6.02767 3.34171 5.87977 3.71355 5.87937H22.23Z" fill="#4B5564" stroke="#4B5564" stroke-width="0.3"/>
<path d="M12.9715 15.5548C13.0773 15.5548 13.1794 15.5163 13.2587 15.4463L23.7139 6.21714L23.1397 5.56641L12.9715 14.5431L2.80291 5.56749L2.22875 6.21823L12.6839 15.4474C12.7634 15.5172 12.8657 15.5554 12.9715 15.5548Z" fill="#4B5564" stroke="#4B5564" stroke-width="0.3"/>
<path d="M23.9502 19.6264L16.9266 11.6235L16.2739 12.1961L23.2975 20.1989L23.9502 19.6264ZM9.64768 12.1879L8.99521 11.6152L1.97138 19.6178L2.62385 20.1904L9.64768 12.1879Z" fill="#4B5564" stroke="#4B5564" stroke-width="0.3"/>
</g>
<defs>
<clipPath id="clip0_6291_8390">
<rect width="24" height="24" fill="white" transform="translate(0.5 0.5)"/>
</clipPath>
</defs>
</svg>
