<svg width="15" height="16" viewBox="0 0 15 16" fill="none" xmlns="http://www.w3.org/2000/svg">
<path fill-rule="evenodd" clip-rule="evenodd" d="M15 7.64258C15 11.7848 11.6423 15.1426 7.5 15.1426C3.35775 15.1426 0 11.7848 0 7.64258C0 3.50033 3.35775 0.142578 7.5 0.142578C11.6423 0.142578 15 3.50033 15 7.64258ZM8.25 4.64258C8.25 4.84149 8.17098 5.03226 8.03033 5.17291C7.88968 5.31356 7.69891 5.39258 7.5 5.39258C7.30109 5.39258 7.11032 5.31356 6.96967 5.17291C6.82902 5.03226 6.75 4.84149 6.75 4.64258C6.75 4.44367 6.82902 4.2529 6.96967 4.11225C7.11032 3.9716 7.30109 3.89258 7.5 3.89258C7.69891 3.89258 7.88968 3.9716 8.03033 4.11225C8.17098 4.2529 8.25 4.44367 8.25 4.64258ZM7.5 6.14258C7.30109 6.14258 7.11032 6.2216 6.96967 6.36225C6.82902 6.5029 6.75 6.69367 6.75 6.89258V10.6426C6.75 10.8415 6.82902 11.0323 6.96967 11.1729C7.11032 11.3136 7.30109 11.3926 7.5 11.3926C7.69891 11.3926 7.88968 11.3136 8.03033 11.1729C8.17098 11.0323 8.25 10.8415 8.25 10.6426V6.89258C8.25 6.69367 8.17098 6.5029 8.03033 6.36225C7.88968 6.2216 7.69891 6.14258 7.5 6.14258Z" fill="#D62334"/>
</svg>
