<svg width="21" height="21" viewBox="0 0 21 21" fill="none" xmlns="http://www.w3.org/2000/svg">
<path d="M11.375 5.48242L10.3989 3.25134C10.118 2.60923 9.97751 2.28815 9.76795 2.05359C9.58263 1.84615 9.35928 1.6884 9.11407 1.59173C8.83677 1.48242 8.52268 1.48242 7.8945 1.48242H4.55C3.56991 1.48242 3.07986 1.48242 2.70552 1.70041C2.37623 1.89216 2.10852 2.19812 1.94074 2.57444C1.75 3.00226 1.75 3.56232 1.75 4.68242V5.48242M1.75 5.48242H15.05C16.5201 5.48242 17.2552 5.48242 17.8167 5.8094C18.3106 6.09702 18.7122 6.55596 18.9639 7.12045C19.25 7.76219 19.25 8.60226 19.25 10.2824V14.6824C19.25 16.3626 19.25 17.2027 18.9639 17.8444C18.7122 18.4089 18.3106 18.8678 17.8167 19.1554C17.2552 19.4824 16.5201 19.4824 15.05 19.4824H5.95C4.47986 19.4824 3.74479 19.4824 3.18327 19.1554C2.68935 18.8678 2.28778 18.4089 2.03611 17.8444C1.75 17.2027 1.75 16.3626 1.75 14.6824V5.48242Z" stroke="#1E55A8" stroke-width="1.6" stroke-linecap="round" stroke-linejoin="round"/>
</svg>
