<svg width="17" height="15" viewBox="0 0 17 15" fill="none" xmlns="http://www.w3.org/2000/svg">
<path d="M9.125 6.875V14.375C9.125 14.5408 9.05915 14.6997 8.94194 14.8169C8.82473 14.9342 8.66576 15 8.5 15C8.33424 15 8.17527 14.9342 8.05806 14.8169C7.94085 14.6997 7.875 14.5408 7.875 14.375V6.875C7.875 6.70924 7.94085 6.55027 8.05806 6.43306C8.17527 6.31585 8.33424 6.25 8.5 6.25C8.66576 6.25 8.82473 6.31585 8.94194 6.43306C9.05915 6.55027 9.125 6.70924 9.125 6.875ZM14.125 12.5C13.9592 12.5 13.8003 12.5658 13.6831 12.6831C13.5658 12.8003 13.5 12.9592 13.5 13.125V14.375C13.5 14.5408 13.5658 14.6997 13.6831 14.8169C13.8003 14.9342 13.9592 15 14.125 15C14.2908 15 14.4497 14.9342 14.5669 14.8169C14.6842 14.6997 14.75 14.5408 14.75 14.375V13.125C14.75 12.9592 14.6842 12.8003 14.5669 12.6831C14.4497 12.5658 14.2908 12.5 14.125 12.5ZM16 10H14.75V0.625C14.75 0.45924 14.6842 0.300269 14.5669 0.183058C14.4497 0.0658481 14.2908 0 14.125 0C13.9592 0 13.8003 0.0658481 13.6831 0.183058C13.5658 0.300269 13.5 0.45924 13.5 0.625V10H12.25C12.0842 10 11.9253 10.0658 11.8081 10.1831C11.6908 10.3003 11.625 10.4592 11.625 10.625C11.625 10.7908 11.6908 10.9497 11.8081 11.0669C11.9253 11.1842 12.0842 11.25 12.25 11.25H16C16.1658 11.25 16.3247 11.1842 16.4419 11.0669C16.5592 10.9497 16.625 10.7908 16.625 10.625C16.625 10.4592 16.5592 10.3003 16.4419 10.1831C16.3247 10.0658 16.1658 10 16 10ZM2.875 10C2.70924 10 2.55027 10.0658 2.43306 10.1831C2.31585 10.3003 2.25 10.4592 2.25 10.625V14.375C2.25 14.5408 2.31585 14.6997 2.43306 14.8169C2.55027 14.9342 2.70924 15 2.875 15C3.04076 15 3.19973 14.9342 3.31694 14.8169C3.43415 14.6997 3.5 14.5408 3.5 14.375V10.625C3.5 10.4592 3.43415 10.3003 3.31694 10.1831C3.19973 10.0658 3.04076 10 2.875 10ZM4.75 7.5H3.5V0.625C3.5 0.45924 3.43415 0.300269 3.31694 0.183058C3.19973 0.0658481 3.04076 0 2.875 0C2.70924 0 2.55027 0.0658481 2.43306 0.183058C2.31585 0.300269 2.25 0.45924 2.25 0.625V7.5H1C0.83424 7.5 0.675268 7.56585 0.558058 7.68306C0.440848 7.80027 0.375 7.95924 0.375 8.125C0.375 8.29076 0.440848 8.44973 0.558058 8.56694C0.675268 8.68415 0.83424 8.75 1 8.75H4.75C4.91576 8.75 5.07473 8.68415 5.19194 8.56694C5.30915 8.44973 5.375 8.29076 5.375 8.125C5.375 7.95924 5.30915 7.80027 5.19194 7.68306C5.07473 7.56585 4.91576 7.5 4.75 7.5ZM10.375 3.75H9.125V0.625C9.125 0.45924 9.05915 0.300269 8.94194 0.183058C8.82473 0.0658481 8.66576 0 8.5 0C8.33424 0 8.17527 0.0658481 8.05806 0.183058C7.94085 0.300269 7.875 0.45924 7.875 0.625V3.75H6.625C6.45924 3.75 6.30027 3.81585 6.18306 3.93306C6.06585 4.05027 6 4.20924 6 4.375C6 4.54076 6.06585 4.69973 6.18306 4.81694C6.30027 4.93415 6.45924 5 6.625 5H10.375C10.5408 5 10.6997 4.93415 10.8169 4.81694C10.9342 4.69973 11 4.54076 11 4.375C11 4.20924 10.9342 4.05027 10.8169 3.93306C10.6997 3.81585 10.5408 3.75 10.375 3.75Z" fill="#4B5564"/>
</svg>
