<svg width="25" height="25" viewBox="0 0 25 25" fill="none" xmlns="http://www.w3.org/2000/svg">
<path d="M12.5 2.75C10.5716 2.75 8.68657 3.32183 7.08319 4.39317C5.47982 5.46451 4.23013 6.98726 3.49218 8.76884C2.75422 10.5504 2.56114 12.5108 2.93735 14.4021C3.31355 16.2934 4.24215 18.0307 5.60571 19.3943C6.96928 20.7579 8.70656 21.6865 10.5979 22.0627C12.4892 22.4389 14.4496 22.2458 16.2312 21.5078C18.0127 20.7699 19.5355 19.5202 20.6068 17.9168C21.6782 16.3134 22.25 14.4284 22.25 12.5C22.2473 9.91498 21.2192 7.43661 19.3913 5.60872C17.5634 3.78084 15.085 2.75273 12.5 2.75ZM12.5 4.25C14.0984 4.2483 15.6625 4.71361 17 5.58875V7.4375L14.9216 9.85063L11.9713 10.25L11.9422 10.2294L10.0981 9.02375C9.93464 8.90858 9.74976 8.82727 9.55439 8.7846C9.35901 8.74192 9.15707 8.73875 8.96045 8.77526C8.76382 8.81177 8.57649 8.88723 8.40945 8.99721C8.24242 9.10718 8.09906 9.24944 7.98782 9.41562L6.02469 12.35C5.86115 12.5945 5.77312 12.8818 5.77157 13.1759L5.75 16.5725L5.44344 16.7741C4.68558 15.5228 4.27404 14.0926 4.25101 12.6299C4.22798 11.1672 4.59429 9.72469 5.31238 8.45021C6.03048 7.17573 7.07454 6.1151 8.33756 5.37703C9.60058 4.63896 11.0371 4.25 12.5 4.25ZM6.33969 17.9816L6.57594 17.8269C6.78224 17.6908 6.95172 17.5059 7.06932 17.2885C7.18691 17.0711 7.24898 16.8281 7.25 16.5809L7.26969 13.1844L9.23469 10.25C9.24432 10.2574 9.25433 10.2643 9.26469 10.2706L11.1088 11.4772C11.4178 11.6953 11.798 11.7881 12.1728 11.7369L15.125 11.3366C15.4891 11.288 15.8226 11.1075 16.0625 10.8294L18.1409 8.41437C18.3734 8.14204 18.5007 7.79554 18.5 7.4375V6.84406C19.5144 7.91731 20.2217 9.24352 20.5478 10.6839C20.8738 12.1242 20.8067 13.6257 20.3534 15.0312L18.8403 13.6475C18.63 13.4544 18.3689 13.3254 18.0877 13.2756C17.8066 13.2257 17.517 13.2572 17.2531 13.3663L14.3975 14.5522C14.1587 14.6524 13.9498 14.8125 13.7908 15.0169C13.6319 15.2213 13.5283 15.4633 13.49 15.7194L13.2659 17.2372C13.2121 17.6025 13.2949 17.9749 13.4985 18.283C13.7021 18.591 14.0122 18.8132 14.3694 18.9069L16.3813 19.4375L16.6025 19.6597C14.9596 20.6023 13.0421 20.9501 11.1729 20.6444C9.30362 20.3388 7.59676 19.3984 6.33969 17.9816ZM17.8438 18.7812L17.4406 18.3772C17.2526 18.1884 17.0177 18.0532 16.76 17.9853L14.75 17.4547L14.9741 15.9369L17.8288 14.75L19.7188 16.4825C19.237 17.3552 18.6019 18.134 17.8438 18.7812Z" fill="#4B5564"/>
</svg>
