<svg width="20" height="16" viewBox="0 0 20 16" fill="none" xmlns="http://www.w3.org/2000/svg">
<path d="M1.66699 3.66211L8.47109 8.42498C9.02207 8.81066 9.29756 9.0035 9.59721 9.0782C9.8619 9.14418 10.1387 9.14418 10.4034 9.0782C10.7031 9.0035 10.9786 8.81066 11.5296 8.42498L18.3337 3.66211M5.66699 14.4954H14.3337C15.7338 14.4954 16.4339 14.4954 16.9686 14.223C17.439 13.9833 17.8215 13.6008 18.0612 13.1304C18.3337 12.5956 18.3337 11.8956 18.3337 10.4954V5.16211C18.3337 3.76198 18.3337 3.06191 18.0612 2.52713C17.8215 2.05673 17.439 1.67428 16.9686 1.43459C16.4339 1.16211 15.7338 1.16211 14.3337 1.16211H5.66699C4.26686 1.16211 3.5668 1.16211 3.03202 1.43459C2.56161 1.67428 2.17916 2.05673 1.93948 2.52713C1.66699 3.06191 1.66699 3.76198 1.66699 5.16211V10.4954C1.66699 11.8956 1.66699 12.5956 1.93948 13.1304C2.17916 13.6008 2.56161 13.9833 3.03202 14.223C3.5668 14.4954 4.26686 14.4954 5.66699 14.4954Z" stroke="#667085" stroke-width="1.66667" stroke-linecap="round" stroke-linejoin="round"/>
</svg>
