<svg width="24" height="24" viewBox="0 0 24 24" fill="none" xmlns="http://www.w3.org/2000/svg">
<g clip-path="url(#clip0_6281_5295)">
<path d="M23.7619 12.2763C23.7619 11.4605 23.6957 10.6404 23.5546 9.83789H12.2358V14.4589H18.7176C18.4486 15.9492 17.5844 17.2676 16.3189 18.1054V21.1037H20.1859C22.4567 19.0137 23.7619 15.9272 23.7619 12.2763Z" fill="#4285F4"/>
<path d="M12.2357 23.9994C15.4722 23.9994 18.2015 22.9367 20.1901 21.1024L16.3232 18.1041C15.2473 18.836 13.8583 19.2505 12.2401 19.2505C9.10949 19.2505 6.45507 17.1384 5.50265 14.2988H1.51221V17.3898C3.54932 21.4419 7.6985 23.9994 12.2357 23.9994V23.9994Z" fill="#34A853"/>
<path d="M5.49838 14.3007C4.99571 12.8103 4.99571 11.1965 5.49838 9.70618V6.61523H1.51234C-0.189661 10.006 -0.189661 14.0009 1.51234 17.3916L5.49838 14.3007V14.3007Z" fill="#FBBC04"/>
<path d="M12.2357 4.74966C13.9465 4.7232 15.6 5.36697 16.839 6.54867L20.2651 3.12262C18.0957 1.0855 15.2164 -0.034466 12.2357 0.000808666C7.6985 0.000808666 3.54932 2.55822 1.51221 6.61481L5.49824 9.70575C6.44625 6.86173 9.10508 4.74966 12.2357 4.74966V4.74966Z" fill="#EA4335"/>
</g>
<defs>
<clipPath id="clip0_6281_5295">
<rect width="24" height="24" fill="white" transform="translate(-0.00415039)"/>
</clipPath>
</defs>
</svg>
