<svg width="169" height="127" viewBox="0 0 169 127" fill="none" xmlns="http://www.w3.org/2000/svg">
<path d="M156.221 105.629C160.988 107.037 166.045 104.317 166.934 99.4268C168.679 89.8276 168.737 79.9739 167.083 70.3119C164.922 57.6851 159.895 45.722 152.387 35.3423C144.879 24.9625 135.091 16.4426 123.776 10.4375C112.46 4.43239 99.9178 1.10201 87.1137 0.702384C74.3096 0.302762 61.5843 2.84454 49.9162 8.13233C38.248 13.4201 27.9478 21.3131 19.8074 31.2044C11.6669 41.0957 5.90298 52.722 2.95874 65.1895C0.705813 74.7296 0.149798 84.5677 1.29229 94.2571C1.87435 99.1934 6.75188 102.223 11.5974 101.115L11.9152 101.043C16.7607 99.9348 19.7245 95.1045 19.2912 90.1529C18.6843 83.2189 19.1856 76.2129 20.7942 69.4014C23.0945 59.6609 27.5976 50.5777 33.9575 42.8498C40.3174 35.122 48.3647 28.9555 57.4807 24.8243C66.5966 20.6931 76.5385 18.7073 86.542 19.0195C96.5455 19.3317 106.344 21.9337 115.185 26.6253C124.025 31.3169 131.672 37.9733 137.538 46.0826C143.404 54.192 147.332 63.5384 149.02 73.4034C150.201 80.3019 150.264 87.3255 149.226 94.2082C148.485 99.1231 151.142 104.129 155.909 105.537L156.221 105.629Z" fill="#DDE6F2"/>
<path d="M12.7787 105.629C8.0117 107.037 2.95473 104.317 2.06596 99.4265C0.641698 91.5893 0.33956 83.5737 1.18164 75.622C2.34036 64.6805 5.64282 54.0743 10.9005 44.4091C16.1581 34.7439 23.268 26.2089 31.8241 19.2914C40.3803 12.3739 50.2151 7.20941 60.7672 4.09278C71.3193 0.976152 82.3819 -0.0315742 93.3234 1.12714C104.265 2.28585 114.871 5.5883 124.536 10.8459C134.201 16.1036 142.736 23.2135 149.654 31.7696C154.681 37.9878 158.783 44.8813 161.845 52.2346C163.756 56.8232 160.988 61.8541 156.221 63.262L155.908 63.3544C151.141 64.7624 146.191 62.0035 144.143 57.4744C141.851 52.4049 138.916 47.637 135.403 43.2914C129.998 36.6067 123.33 31.0519 115.779 26.9443C108.228 22.8367 99.9417 20.2565 91.3934 19.3513C82.8451 18.446 74.2023 19.2333 65.9582 21.6682C57.7142 24.1032 50.0305 28.138 43.3459 33.5425C36.6612 38.9469 31.1065 45.6151 26.9988 53.1662C22.8912 60.7174 20.3111 69.0036 19.4058 77.5519C18.8173 83.1091 18.9441 88.7063 19.7739 94.2078C20.5152 99.1228 17.8584 104.128 13.0914 105.536L12.7787 105.629Z" fill="#1E55A8"/>
<g filter="url(#filter0_d_6291_8451)">
<circle cx="84.4999" cy="84.4452" r="29.8593" fill="#EBEEF4"/>
<circle cx="84.4999" cy="84.4452" r="25.8593" stroke="white" stroke-width="8"/>
</g>
<g clip-path="url(#clip0_6291_8451)">
<path d="M89.0066 92.3614L90.5173 76.1955L90.5179 76.1811C90.536 75.9225 90.4811 75.6641 90.3596 75.4352C90.2381 75.2063 90.0547 75.0161 89.8304 74.8862C89.6061 74.7564 89.3499 74.6921 89.0909 74.7006C88.8319 74.7092 88.5804 74.7903 88.3652 74.9347C88.3609 74.9369 88.3568 74.9395 88.353 74.9424L75.1094 84.3378C74.8712 84.4977 74.6895 84.7285 74.5899 84.9975C74.4904 85.2666 74.4782 85.5601 74.555 85.8365L74.5618 85.8616C74.6396 86.1435 74.806 86.393 75.0364 86.5732C75.2668 86.7535 75.549 86.8549 75.8415 86.8626L82.7689 87.1172L86.453 92.9892C86.6078 93.2359 86.8365 93.4275 87.1065 93.5368C87.3765 93.6461 87.6741 93.6674 87.9569 93.5978C88.2398 93.5281 88.4934 93.3711 88.6819 93.149C88.8703 92.9268 88.9838 92.6509 89.0064 92.3605L89.0066 92.3614ZM87.6259 92.2538L83.9417 86.3818C83.8217 86.1907 83.6568 86.0318 83.4613 85.919C83.2659 85.8061 83.0458 85.7428 82.8203 85.7344L75.8929 85.4798L75.9058 85.471L89.1423 76.0793L87.6285 92.237L87.6271 92.2517L87.6259 92.2538Z" fill="#1E55A8"/>
</g>
<defs>
<filter id="filter0_d_6291_8451" x="46.6406" y="50.5859" width="75.7185" height="75.7188" filterUnits="userSpaceOnUse" color-interpolation-filters="sRGB">
<feFlood flood-opacity="0" result="BackgroundImageFix"/>
<feColorMatrix in="SourceAlpha" type="matrix" values="0 0 0 0 0 0 0 0 0 0 0 0 0 0 0 0 0 0 127 0" result="hardAlpha"/>
<feOffset dy="4"/>
<feGaussianBlur stdDeviation="4"/>
<feColorMatrix type="matrix" values="0 0 0 0 0 0 0 0 0 0 0 0 0 0 0 0 0 0 0.12 0"/>
<feBlend mode="normal" in2="BackgroundImageFix" result="effect1_dropShadow_6291_8451"/>
<feBlend mode="normal" in="SourceGraphic" in2="effect1_dropShadow_6291_8451" result="shape"/>
</filter>
<clipPath id="clip0_6291_8451">
<rect width="22.154" height="22.154" fill="white" transform="translate(92.0796 70.9922) rotate(75)"/>
</clipPath>
</defs>
</svg>
