<svg width="16" height="16" viewBox="0 0 16 16" fill="none" xmlns="http://www.w3.org/2000/svg">
<g clip-path="url(#clip0_6281_11545)">
<path d="M6.06004 6.00065C6.21678 5.5551 6.52614 5.17939 6.93334 4.94007C7.34055 4.70076 7.8193 4.61328 8.28483 4.69313C8.75035 4.77297 9.17259 5.015 9.47676 5.37634C9.78093 5.73767 9.94741 6.195 9.94671 6.66732C9.94671 8.00065 7.94671 8.66732 7.94671 8.66732M8.00004 11.334H8.00671M14.6667 8.00065C14.6667 11.6826 11.6819 14.6673 8.00004 14.6673C4.31814 14.6673 1.33337 11.6826 1.33337 8.00065C1.33337 4.31875 4.31814 1.33398 8.00004 1.33398C11.6819 1.33398 14.6667 4.31875 14.6667 8.00065Z" stroke="#1E55A8" stroke-linecap="round" stroke-linejoin="round"/>
</g>
<defs>
<clipPath id="clip0_6281_11545">
<rect width="16" height="16" fill="white"/>
</clipPath>
</defs>
</svg>
