<svg width="78" height="65" viewBox="0 0 78 65" fill="none" xmlns="http://www.w3.org/2000/svg">
<path d="M52.269 45.4531V63.763C52.1356 63.8296 52.0022 63.8296 51.8688 63.8962C50.3346 64.2957 48.7336 64.6286 47.1327 64.8283V45.4531H52.269Z" fill="#007AB6"/>
<path d="M52.269 45.4531V63.763C52.1356 63.8296 52.0022 63.8296 51.8688 63.8962C50.3346 64.2957 48.7336 64.6286 47.1327 64.8283V45.4531H52.269Z" fill="white"/>
<path d="M57.003 45.4531V61.6324C56.6695 61.8322 56.3359 61.9653 56.0024 62.0985C55.869 62.1651 55.7356 62.2317 55.6022 62.2982H55.5355C55.4021 62.3648 55.2019 62.4314 55.0685 62.498C54.0679 62.9641 53.0006 63.297 51.9333 63.6299V45.4531H57.003Z" fill="#2C2E3E"/>
<path d="M57.003 45.4531V61.6324C56.6695 61.8322 56.3359 61.9653 56.0024 62.0985C55.869 62.1651 55.7356 62.2317 55.6022 62.2982H55.5355C55.4021 62.3648 55.2019 62.4314 55.0685 62.498C54.0679 62.9641 53.0006 63.297 51.9333 63.6299V45.4531H57.003Z" fill="#EDF2F8"/>
<path opacity="0.1" d="M57.003 52.4414V60.4978C56.7362 60.6309 56.4693 60.7641 56.2025 60.8973C56.0691 60.9638 55.9357 61.0304 55.8023 61.097H55.7356C55.6022 61.1636 55.4021 61.2302 55.2686 61.2967C54.2681 61.7628 53.2008 62.0957 52.1335 62.4286C52.0668 62.4286 52.0001 62.4952 51.9333 62.4952V60.7641C52.0001 60.5644 52.0668 60.3646 52.1335 60.1649C53.1341 57.5682 54.4015 55.5042 55.869 53.773C56.2025 53.307 56.6028 52.8409 57.003 52.4414Z" fill="#344050"/>
<path opacity="0.1" d="M57.0051 45.4531H47.1327V51.1791H57.0051V45.4531Z" fill="#1C4F93"/>
<path d="M77.9499 25.207V45.7141H61.9405V45.7807H29.855V8.96111H60.3396C60.7398 8.89453 61.14 8.89453 61.607 8.89453C62.1406 8.89453 62.6076 8.89453 63.1412 8.96111C63.8083 9.02769 64.4086 9.09428 65.009 9.22744C68.1441 9.89325 70.9458 11.4912 73.1471 13.6218C76.1488 16.618 77.9499 20.746 77.9499 25.207Z" fill="#007AB6"/>
<path d="M65.003 9.29189V24.5391C65.003 25.0717 64.6028 25.4712 64.0692 25.4712C63.5355 25.4712 63.1353 25.0717 63.1353 24.5391V8.95898C63.7356 9.02557 64.4027 9.15873 65.003 9.29189Z" fill="url(#paint0_linear_6507_4042)"/>
<path d="M64.4133 30.0017C66.4395 30.0017 68.0821 28.3622 68.0821 26.3397C68.0821 24.3173 66.4395 22.6777 64.4133 22.6777C62.387 22.6777 60.7444 24.3173 60.7444 26.3397C60.7444 28.3622 62.387 30.0017 64.4133 30.0017Z" fill="#2C2E3E"/>
<path d="M65.0044 29.533C67.1043 29.533 68.8066 27.8934 68.8066 25.871C68.8066 23.8485 67.1043 22.209 65.0044 22.209C62.9045 22.209 61.2022 23.8485 61.2022 25.871C61.2022 27.8934 62.9045 29.533 65.0044 29.533Z" fill="#D5DAE8"/>
<path d="M65.2045 29.533C67.2308 29.533 68.8734 27.8934 68.8734 25.871C68.8734 23.8485 67.2308 22.209 65.2045 22.209C63.1783 22.209 61.5357 23.8485 61.5357 25.871C61.5357 27.8934 63.1783 29.533 65.2045 29.533Z" fill="#EAEEF9"/>
<path d="M65.2052 27.2671C65.9788 27.2671 66.606 26.6411 66.606 25.8689C66.606 25.0967 65.9788 24.4707 65.2052 24.4707C64.4315 24.4707 63.8044 25.0967 63.8044 25.8689C63.8044 26.6411 64.4315 27.2671 65.2052 27.2671Z" fill="#D5DAE8"/>
<path d="M45.7981 23.6069V45.7786H13.1122V23.6069C13.1122 16.6159 18.0485 10.7567 24.5856 9.29189C25.6529 9.02557 26.7202 8.95898 27.8542 8.95898H31.1895C38.5271 8.95898 44.5973 14.2855 45.7313 21.3431C45.7313 22.009 45.7981 22.8079 45.7981 23.6069Z" fill="#0079D6"/>
<path d="M66.2761 8.09766V25.7418C66.2761 26.2744 65.8758 26.6739 65.3422 26.6739C64.8086 26.6739 64.4083 26.2744 64.4083 25.7418V8.09766H66.2761Z" fill="white"/>
<path d="M40.5864 36.4006C40.5864 37.7988 39.4524 38.9307 38.0516 38.9307C11.9029 38.9307 13.5705 39.0638 12.7034 38.5312C11.9696 38.0651 11.5027 37.2661 11.5027 36.4006C13.0369 19.0228 12.7701 19.2225 13.8374 18.2238C14.8379 17.3583 13.4371 17.6246 39.4524 17.6246C40.2528 17.6246 40.9866 18.0241 41.4535 18.5567C42.3207 19.6886 42.1206 19.2891 40.5864 36.4006Z" fill="white"/>
<path d="M41.7192 18.9528C28.5115 30.1385 28.845 30.3383 26.9105 30.3383C24.8426 30.3383 25.0428 30.072 13.3025 18.9528C14.3031 17.0886 13.7028 17.6212 39.5179 17.6212C40.4518 17.6212 41.319 18.1539 41.7192 18.9528Z" fill="#EAEEF9"/>
<path d="M9.90556 22.6152H1.23381C0.833575 22.6152 0.500046 22.2823 0.500046 21.8828C0.500046 21.4833 0.833575 21.1504 1.23381 21.1504H9.90556C10.3058 21.1504 10.6393 21.4833 10.6393 21.8828C10.6393 22.2823 10.3058 22.6152 9.90556 22.6152Z" fill="#007AB6"/>
<path d="M9.50197 26.748H4.49904C4.0988 26.748 3.76527 26.4151 3.76527 26.0156C3.76527 25.6161 4.0988 25.2832 4.49904 25.2832H9.50197C9.9022 25.2832 10.2357 25.6161 10.2357 26.0156C10.2357 26.4151 9.9022 26.748 9.50197 26.748Z" fill="#007AB6"/>
<path d="M9.03545 30.6757H6.23381C5.83357 30.6757 5.50005 30.3428 5.50005 29.9433C5.50005 29.5438 5.83357 29.2109 6.23381 29.2109H9.10216C9.50239 29.2109 9.83592 29.5438 9.83592 29.9433C9.83592 30.3428 9.50239 30.6757 9.03545 30.6757Z" fill="#007AB6"/>
<path d="M36.7887 30.4727H33.7869C33.5868 30.4727 33.4534 30.6058 33.4534 30.8056L33.3867 31.2051L33.2532 32.2704L33.1865 33.0028L33.0531 33.8017C33.0531 33.8683 33.0531 33.9349 33.0531 34.0015C33.1198 34.1346 33.2532 34.2678 33.3867 34.2678H36.3884C36.5885 34.2678 36.7219 34.1346 36.7219 33.9349L37.1222 30.9387C37.1889 30.6724 37.0555 30.4727 36.7887 30.4727ZM36.0549 33.2025C36.0549 33.2691 35.9882 33.4022 35.8548 33.4022H34.3872H34.1871C34.0537 33.4022 33.987 33.2691 33.987 33.2025L34.0537 32.6698L34.1204 31.9375L34.1871 31.6045C34.1871 31.538 34.2538 31.4048 34.3872 31.4048H36.0549C36.1883 31.4048 36.255 31.538 36.255 31.6045L36.0549 33.2025Z" fill="#0079D6"/>
<path d="M34.3878 31.3331C34.2544 31.3331 34.1877 31.3997 34.1877 31.5328L34.121 31.8657C33.7875 32.0655 33.5207 32.1987 33.2538 32.2652C33.0537 32.3318 32.8536 32.3318 32.6535 32.3318C32.0531 32.3318 31.5862 32.1321 31.186 31.9323C30.5856 31.666 30.4522 31.666 30.2521 31.8657C30.052 32.0655 29.7851 32.0655 29.585 31.9323C29.3849 31.7326 29.3849 31.4663 29.5183 31.2665C30.1854 30.4675 30.9858 30.8004 31.5862 31.0668C32.1865 31.3331 32.6535 31.5994 33.3873 31.1999C33.454 31.1333 33.5874 31.1333 33.6541 31.0668C33.8542 30.9336 34.1877 31.0002 34.3211 31.1999C34.3878 31.1999 34.3878 31.2665 34.3878 31.3331Z" fill="#0079D6"/>
<path d="M34.3876 33.3322L34.3209 33.3988C33.854 33.7317 33.4538 33.8648 33.1202 33.9314C32.9868 33.9314 32.8534 33.9314 32.7867 33.9314C32.1863 33.9314 31.7194 33.7317 31.3192 33.5319C30.7188 33.2656 30.5854 33.2656 30.3853 33.4654C30.1852 33.6651 29.9184 33.6651 29.7182 33.5319C29.5181 33.3322 29.5181 33.0659 29.6515 32.8661C30.3186 32.0671 31.1191 32.4 31.6527 32.6664C32.1196 32.8661 32.5866 33.0659 33.1202 32.9327C33.3203 32.8661 33.4538 32.7995 33.7206 32.6664C33.7873 32.5998 33.9207 32.5998 34.0541 32.5998L33.9874 33.1324C33.9874 33.2656 34.0541 33.3322 34.1875 33.3322H34.3876Z" fill="#0079D6"/>
<path opacity="0.5" d="M46.2461 26.7616L46.046 21.3685C44.912 14.3775 38.8418 8.98438 31.5042 8.98438H28.1689C27.0349 8.98438 25.9676 9.11754 24.9003 9.31728L24.5 9.65019L32.7716 43.6068L46.1794 44.3392V26.7616H46.2461Z" fill="#0079D6"/>
<path d="M75.283 7.49587C75.5498 7.69561 75.4164 8.16168 75.0161 8.16168H66.3444H64.3432V0.904297H75.0161C75.3497 0.904297 75.5498 1.30379 75.283 1.57011L72.4813 3.90047C72.0811 4.23337 72.0811 4.83261 72.4813 5.16551L75.283 7.49587Z" fill="#0079D6"/>
<defs>
<linearGradient id="paint0_linear_6507_4042" x1="64.0692" y1="8.95898" x2="64.0692" y2="25.4712" gradientUnits="userSpaceOnUse">
<stop stop-color="#192942"/>
<stop offset="1" stop-color="#192942" stop-opacity="0.58"/>
</linearGradient>
</defs>
</svg>
