<svg width="19" height="21" viewBox="0 0 19 21" fill="none" xmlns="http://www.w3.org/2000/svg">
<path d="M18.2936 14.9944C17.7733 14.0981 16.9999 11.5622 16.9999 8.25C16.9999 6.26088 16.2097 4.35322 14.8032 2.9467C13.3967 1.54018 11.489 0.75 9.49989 0.75C7.51077 0.75 5.60311 1.54018 4.19659 2.9467C2.79007 4.35322 1.99989 6.26088 1.99989 8.25C1.99989 11.5631 1.22551 14.0981 0.705202 14.9944C0.572331 15.2222 0.501891 15.4811 0.500985 15.7449C0.50008 16.0086 0.568741 16.268 0.700045 16.4967C0.831349 16.7255 1.02065 16.9156 1.24886 17.0478C1.47708 17.1801 1.73613 17.2498 1.99989 17.25H5.82583C5.99886 18.0967 6.45904 18.8577 7.12852 19.4042C7.79799 19.9507 8.63568 20.2492 9.49989 20.2492C10.3641 20.2492 11.2018 19.9507 11.8713 19.4042C12.5407 18.8577 13.0009 18.0967 13.174 17.25H16.9999C17.2636 17.2496 17.5225 17.1798 17.7506 17.0475C17.9787 16.9151 18.1678 16.725 18.299 16.4963C18.4302 16.2676 18.4988 16.0083 18.4979 15.7446C18.4969 15.4809 18.4265 15.2222 18.2936 14.9944ZM9.49989 18.75C9.03472 18.7499 8.58103 18.6055 8.20126 18.3369C7.8215 18.0683 7.53432 17.6886 7.37927 17.25H11.6205C11.4655 17.6886 11.1783 18.0683 10.7985 18.3369C10.4188 18.6055 9.96506 18.7499 9.49989 18.75ZM1.99989 15.75C2.72177 14.5087 3.49989 11.6325 3.49989 8.25C3.49989 6.6587 4.13203 5.13258 5.25725 4.00736C6.38247 2.88214 7.90859 2.25 9.49989 2.25C11.0912 2.25 12.6173 2.88214 13.7425 4.00736C14.8678 5.13258 15.4999 6.6587 15.4999 8.25C15.4999 11.6297 16.2761 14.5059 16.9999 15.75H1.99989Z" fill="#4B5564"/>
</svg>
