<svg width="107" height="100" viewBox="0 0 107 100" fill="none" xmlns="http://www.w3.org/2000/svg">
<path fill-rule="evenodd" clip-rule="evenodd" d="M13.391 69.2969H5.15916C4.59585 69.2969 4.11676 69.7397 4.02891 70.3411L0.699553 93.1751C0.633379 93.6258 0.955952 94.0319 1.37845 94.0319H5.30839C5.8717 94.0319 6.35079 93.5891 6.43863 92.9865L7.3366 86.8279C7.42322 86.2248 7.90348 85.7825 8.46562 85.7825H11.0715C16.4941 85.7825 19.6234 82.9439 20.4411 77.3192C20.8093 74.8584 20.4567 72.9248 19.3912 71.5703C18.2214 70.0838 16.146 69.2969 13.391 69.2969ZM14.3407 77.6367C13.8906 80.832 11.6337 80.832 9.45144 80.832H8.20923L9.08069 74.8644C9.13243 74.5041 9.4213 74.2383 9.75835 74.2383H10.3277C11.8142 74.2383 13.2166 74.2383 13.9413 75.1548C14.373 75.7019 14.5055 76.5142 14.3407 77.6367ZM37.9978 77.5343H34.0558C33.7199 77.5343 33.4297 77.8 33.3779 78.1609L33.2036 79.3533L32.9278 78.9213C32.0745 77.5813 30.1717 77.1336 28.2723 77.1336C23.9158 77.1336 20.1955 80.7024 19.4708 85.709C19.0943 88.2059 19.6296 90.5938 20.9391 92.2592C22.1406 93.7903 23.8596 94.4284 25.9044 94.4284C29.4142 94.4284 31.3609 91.9869 31.3609 91.9869L31.1849 93.1721C31.1186 93.6252 31.4411 94.0313 31.8611 94.0313H35.4121C35.977 94.0313 36.4532 93.5884 36.5423 92.9859L38.6729 78.3911C38.7403 77.9422 38.4189 77.5343 37.9978 77.5343ZM32.5028 85.8337C32.1224 88.2698 30.3349 89.9051 28.0556 89.9051C26.9109 89.9051 25.9957 89.508 25.4086 88.7554C24.826 88.0083 24.6043 86.9442 24.7898 85.7596C25.1452 83.344 26.9627 81.6557 29.2075 81.6557C30.3266 81.6557 31.2367 82.0576 31.8361 82.8168C32.4365 83.5838 32.6749 84.6539 32.5028 85.8337ZM55.0309 77.5337H58.9924C59.5472 77.5337 59.8708 78.2067 59.5556 78.699L46.3804 99.271C46.1671 99.6043 45.8156 99.8025 45.4402 99.8025H41.4836C40.9266 99.8025 40.6013 99.124 40.9238 98.6305L45.0263 92.3665L40.6632 78.5152C40.5122 78.0338 40.8408 77.5337 41.3143 77.5337H45.2068C45.7125 77.5337 46.1587 77.8928 46.3046 78.4164L48.6202 86.7821L54.084 78.0765C54.2979 77.7367 54.6532 77.5337 55.0309 77.5337Z" fill="#253B80"/>
<path fill-rule="evenodd" clip-rule="evenodd" d="M97.983 93.1763L101.361 69.9247C101.413 69.5638 101.702 69.2981 102.038 69.2969H105.841C106.261 69.2969 106.584 69.7042 106.518 70.1549L103.186 92.9877C103.099 93.5903 102.62 94.0331 102.056 94.0331H98.6592C98.2392 94.0331 97.9167 93.627 97.983 93.1763ZM72.11 69.2981H63.8767C63.3147 69.2981 62.8356 69.741 62.7476 70.3423L59.4183 93.1763C59.352 93.627 59.6746 94.0331 60.0951 94.0331H64.3195C64.7122 94.0331 65.0481 93.7234 65.1094 93.3016L66.0541 86.8291C66.141 86.226 66.6211 85.7837 67.1832 85.7837H69.7878C75.2115 85.7837 78.3403 82.9451 79.1585 77.3204C79.5278 74.8596 79.173 72.926 78.108 71.5715C76.9388 70.085 74.865 69.2981 72.11 69.2981ZM73.0597 77.6379C72.6108 80.8332 70.3537 80.8332 68.1702 80.8332H66.9292L67.802 74.8656C67.8538 74.5053 68.1401 74.2395 68.4782 74.2395H69.0475C70.5331 74.2395 71.9368 74.2395 72.6609 75.156C73.0931 75.7031 73.2246 76.5154 73.0597 77.6379ZM96.7146 77.5355H92.7754C92.4367 77.5355 92.1493 77.8012 92.0986 78.1621L91.9243 79.3545L91.6474 78.9225C90.7941 77.5825 88.8924 77.1348 86.993 77.1348C82.6365 77.1348 78.9173 80.7036 78.1926 85.7102C77.8172 88.2071 78.3503 90.595 79.6598 92.2604C80.8636 93.7915 82.5803 94.4296 84.6251 94.4296C88.1349 94.4296 90.0811 91.9881 90.0811 91.9881L89.9056 93.1733C89.8394 93.6264 90.1619 94.0325 90.5847 94.0325H94.134C94.696 94.0325 95.175 93.5896 95.2631 92.9871L97.3948 78.3923C97.4599 77.9434 97.1374 77.5355 96.7146 77.5355ZM91.2202 85.8349C90.842 88.271 89.0523 89.9063 86.7724 89.9063C85.63 89.9063 84.7131 89.5092 84.1255 88.7566C83.5428 88.0095 83.3239 86.9454 83.5072 85.7608C83.8642 83.3452 85.6795 81.6569 87.9243 81.6569C89.0439 81.6569 89.9536 82.0588 90.5535 82.818C91.1562 83.585 91.3946 84.6551 91.2202 85.8349Z" fill="#179BD7"/>
<path d="M43.8537 61.1411L44.8658 54.1878L42.6116 54.1311H31.8472L39.3279 2.82073C39.3508 2.66582 39.4265 2.52139 39.5368 2.41884C39.6471 2.31628 39.7886 2.25977 39.9356 2.25977H58.0861C64.1119 2.25977 68.2701 3.61615 70.4413 6.29332C71.459 7.54926 72.1074 8.86166 72.421 10.306C72.7496 11.8215 72.7557 13.6321 72.4343 15.8404L72.4109 16.0016V17.4165L73.4292 18.0403C74.2864 18.5322 74.9671 19.0953 75.4896 19.74C76.3608 20.8138 76.9239 22.1786 77.1618 23.7966C77.4074 25.4607 77.3261 27.4408 76.9239 29.6826C76.4594 32.2615 75.7085 34.5075 74.6947 36.3453C73.7617 38.0387 72.5736 39.4429 71.1632 40.5317C69.8164 41.5657 68.216 42.3508 66.4068 42.8533C64.6533 43.3468 62.6548 43.5962 60.4623 43.5962H59.0497C58.0399 43.5962 57.0584 43.9897 56.2886 44.6953C55.5166 45.4153 55.0052 46.3987 54.8487 47.4748L54.7423 48.1009L52.9543 60.356L52.873 60.8061C52.8518 60.9489 52.815 61.02 52.761 61.0682C52.7125 61.1116 52.6429 61.1411 52.5749 61.1411H43.8537Z" fill="#253B80"/>
<path d="M74.3932 16.1562C74.3391 16.5309 74.2773 16.9139 74.2077 17.3075C71.8136 30.6013 63.6249 35.1938 53.1657 35.1938H47.8406C46.5617 35.1938 45.4839 36.1985 45.2845 37.5633L42.5579 56.2682L41.7858 61.57C41.6561 62.466 42.295 63.274 43.1305 63.274H52.5758C53.6943 63.274 54.6441 62.3949 54.8201 61.2019L54.9131 60.6825L56.6917 48.4749L56.8059 47.8055C56.9796 46.6082 57.9316 45.7291 59.0501 45.7291H60.4627C69.6134 45.7291 76.7772 41.7102 78.871 30.0801C79.7456 25.2218 79.2927 21.1653 76.9783 18.3122C76.2781 17.4519 75.4092 16.7381 74.3932 16.1562Z" fill="#179BD7"/>
<path d="M71.8896 15.0719C71.5242 14.9568 71.1465 14.8521 70.7594 14.758C70.3706 14.6659 69.9717 14.5842 69.5618 14.5131C68.1258 14.2619 66.5528 14.1426 64.8672 14.1426H50.641C50.2906 14.1426 49.9581 14.2284 49.66 14.3833C49.0039 14.7245 48.5165 15.3964 48.3984 16.219L45.3716 36.9542L45.2847 37.5591C45.4841 36.1943 46.5619 35.1896 47.8408 35.1896H53.1659C63.6251 35.1896 71.8144 30.5951 74.2079 17.3033C74.2792 16.9098 74.3393 16.5267 74.3934 16.1521C73.7879 15.8046 73.1317 15.5073 72.4254 15.254C72.2516 15.1912 72.0717 15.1306 71.8896 15.0719Z" fill="#222D65"/>
<path d="M48.4035 16.2229C48.5216 15.4002 49.0095 14.7283 49.6652 14.3892C49.9654 14.2343 50.2963 14.1485 50.6461 14.1485H64.8729C66.5584 14.1485 68.1314 14.2678 69.5669 14.519C69.9774 14.5902 70.3762 14.6718 70.765 14.7639C71.1521 14.8581 71.5293 14.9628 71.8952 15.0779C72.0768 15.1365 72.2567 15.1972 72.4327 15.2579C73.139 15.5112 73.7952 15.8105 74.4007 16.1559C75.1131 11.2432 74.3951 7.89826 71.9398 4.86939C69.2327 1.53497 64.3465 0.107422 58.0945 0.107422H39.9435C38.6663 0.107422 37.5773 1.1121 37.3795 2.47898L29.8197 54.3168C29.6704 55.3424 30.4018 56.2679 31.3576 56.2679H42.5637L45.3772 36.958L48.4035 16.2229Z" fill="#253B80"/>
</svg>
