<svg width="136" height="57" viewBox="0 0 136 57" fill="none" xmlns="http://www.w3.org/2000/svg">
<path fill-rule="evenodd" clip-rule="evenodd" d="M73.3088 8.29742L63.9006 10.3165V2.68876L73.3088 0.707031V8.29742ZM35.081 5.04785L25.9352 6.99219L25.8977 36.9425C25.8977 42.4763 30.0583 46.552 35.6058 46.552C38.6794 46.552 40.9283 45.9911 42.1653 45.3181V37.7277C40.9658 38.2138 35.0435 39.9337 35.0435 34.3999V21.126H42.1653V13.1617H35.0435L35.081 5.04785ZM135.189 29.6453C135.189 20.0732 130.541 12.5202 121.657 12.5202C112.737 12.5202 107.339 20.0732 107.339 29.5705C107.339 40.8252 113.711 46.5087 122.857 46.5087C127.317 46.5087 130.691 45.4991 133.24 44.0783V36.6C130.691 37.8713 127.767 38.6566 124.056 38.6566C120.42 38.6566 117.197 37.3853 116.785 32.9731H135.114C135.114 32.7672 135.127 32.2995 135.143 31.7605L135.143 31.7595C135.164 31.0266 135.189 30.1622 135.189 29.6453ZM116.672 26.0888C116.672 21.8637 119.258 20.1063 121.62 20.1063C123.906 20.1063 126.342 21.8637 126.342 26.0888H116.672ZM12.9251 20.6341C10.9385 20.6341 9.73901 21.195 9.73901 22.6533C9.73901 24.2454 11.8033 24.9458 14.3642 25.8147C18.5392 27.2313 24.0342 29.0957 24.0574 36.0019C24.0574 42.6949 18.6974 46.5462 10.901 46.5462C7.67746 46.5462 4.15407 45.9105 0.66817 44.4149V35.5158C3.81673 37.2358 7.7899 38.5071 10.901 38.5071C13 38.5071 14.4993 37.9462 14.4993 36.2262C14.4993 34.4626 12.2616 33.6565 9.56009 32.6833C5.44585 31.2011 0.255859 29.3314 0.255859 23.102C0.255859 16.4837 5.31604 12.5203 12.9251 12.5203C16.0361 12.5203 19.1097 13.0063 22.2208 14.2403V23.0272C19.3721 21.4941 15.7737 20.6341 12.9251 20.6341ZM53.8173 15.9217L53.2176 13.1548H45.1213V45.872H54.492V23.6991C56.7035 20.82 60.4518 21.3435 61.6138 21.7548V13.1548C60.4143 12.7061 56.0288 11.8835 53.8173 15.9217ZM63.9006 13.1611H73.3088V45.8782H63.9006V13.1611ZM85.5339 15.4367C86.8458 14.2402 89.2072 12.5202 92.8806 12.5202C99.44 12.5202 105.625 18.428 105.662 29.2714C105.662 41.1244 99.5525 46.5087 92.8431 46.5087C89.5446 46.5087 87.558 45.1253 86.2086 44.1531L86.1711 54.7348L76.8005 56.7165V13.1184H85.0467L85.5339 15.4367ZM86.212 36.5237C87.1116 37.4958 88.4235 38.281 90.635 38.281C94.0834 38.281 96.4073 34.5419 96.4073 29.5315C96.4073 24.6333 94.0459 20.8194 90.635 20.8194C88.4985 20.8194 87.1491 21.5672 86.1746 22.6516L86.212 36.5237Z" fill="#6461FC"/>
</svg>
