<svg width="20" height="20" viewBox="0 0 20 20" fill="none" xmlns="http://www.w3.org/2000/svg">
<path d="M14.1924 0.103516C17.5476 0.103516 19.7942 2.45902 19.7942 5.9626V14.0495C19.7942 17.5422 17.5476 19.8977 14.1924 19.8977H5.61165C2.25654 19.8977 0 17.5422 0 14.0495V5.9626C0 2.45902 2.25654 0.103516 5.61165 0.103516H14.1924ZM14.0341 7.03148C13.6976 6.69498 13.1433 6.69498 12.8068 7.03148L8.71934 11.119L6.98735 9.38699C6.65085 9.05049 6.09661 9.05049 5.76011 9.38699C5.42361 9.72349 5.42361 10.2678 5.76011 10.6142L8.11562 12.9598C8.28387 13.1281 8.50161 13.2073 8.71934 13.2073C8.94697 13.2073 9.16471 13.1281 9.33296 12.9598L14.0341 8.25872C14.3706 7.92222 14.3706 7.37788 14.0341 7.03148Z" fill="#007AB6"/>
</svg>
