<svg width="27" height="32" viewBox="0 0 27 32" fill="none" xmlns="http://www.w3.org/2000/svg">
<path d="M22.9421 24.602C23.2135 24.8903 23.2017 25.346 22.9149 25.6195C22.7768 25.7518 22.6002 25.8172 22.4237 25.8172C22.2346 25.8172 22.0455 25.7419 21.9053 25.5921L21.1092 24.7456V27.6864C21.1092 28.0844 20.7897 28.4065 20.3948 28.4065C19.9999 28.4065 19.6803 28.0844 19.6803 27.6864V24.746L18.8849 25.5921C18.6135 25.8819 18.1614 25.8931 17.8753 25.6195C17.5886 25.346 17.5767 24.8903 17.8481 24.602L19.7815 22.545C20.0996 22.2067 20.6906 22.2067 21.0087 22.5443L22.9421 24.602ZM27 25.3425C27 29.0134 24.0368 32 20.3948 32C16.7527 32 13.7902 29.0134 13.7902 25.3425C13.7902 21.9067 16.3856 19.0712 19.704 18.7219V6.01125H15.6657C15.2708 6.01125 14.9512 5.68882 14.9512 5.29114V1.44023H2.44617C1.88521 1.44023 1.42891 1.90049 1.42891 2.4659V24.0345C1.42891 24.5999 1.88521 25.0598 2.44617 25.0598H10.6191C11.0141 25.0598 11.3336 25.3819 11.3336 25.7799C11.3336 26.1779 11.0141 26.5 10.6191 26.5H2.44617C1.0975 26.5 0 25.3938 0 24.0345V2.4659C0 1.10619 1.0975 0 2.44617 0C2.44617 0 15.694 0.00746755 15.7088 0.0083965C15.8727 0.0186653 16.0394 0.0835907 16.159 0.199018L20.9118 4.77007C21.186 5.03375 21.133 5.45391 21.133 5.80267C21.133 6.19371 21.1183 18.7276 21.133 18.7293C24.4285 19.1008 27 21.9233 27 25.3425ZM16.3801 4.57103H18.6347L16.6913 2.70179L16.3801 2.40261V4.57103ZM25.5711 25.3425C25.5711 22.4655 23.2491 20.1252 20.3948 20.1252C17.5411 20.1252 15.2192 22.4655 15.2192 25.3425C15.2192 28.2194 17.5411 30.5598 20.3948 30.5598C23.2491 30.5598 25.5711 28.2194 25.5711 25.3425ZM5.73797 11.5401H15.3943C15.7892 11.5401 16.1087 11.2177 16.1087 10.82C16.1087 10.4223 15.7892 10.0999 15.3943 10.0999H5.73797C5.34307 10.0999 5.02351 10.4223 5.02351 10.82C5.02351 11.2177 5.34307 11.5401 5.73797 11.5401ZM5.73797 16.0323H15.3943C15.7892 16.0323 16.1087 15.7099 16.1087 15.3122C16.1087 14.9146 15.7892 14.5921 15.3943 14.5921H5.73797C5.34307 14.5921 5.02351 14.9146 5.02351 15.3122C5.02351 15.7099 5.34307 16.0323 5.73797 16.0323ZM11.4369 19.0844H5.73797C5.34307 19.0844 5.02351 19.4065 5.02351 19.8045C5.02351 20.2025 5.34307 20.5246 5.73797 20.5246H11.4369C11.8318 20.5246 12.1513 20.2025 12.1513 19.8045C12.1513 19.4065 11.8318 19.0844 11.4369 19.0844Z" fill="#1E55A8"/>
</svg>
