<svg width="19" height="14" viewBox="0 0 19 14" fill="none" xmlns="http://www.w3.org/2000/svg">
<path d="M1.51677 7.73624C1.40328 7.55654 1.34654 7.46669 1.31477 7.32811C1.29091 7.22401 1.29091 7.05984 1.31477 6.95575C1.34654 6.81716 1.40328 6.72731 1.51677 6.54761C2.45461 5.06263 5.24617 1.30859 9.50034 1.30859C13.7545 1.30859 16.5461 5.06263 17.4839 6.54761C17.5974 6.72731 17.6541 6.81716 17.6859 6.95575C17.7098 7.05984 17.7098 7.22401 17.6859 7.32811C17.6541 7.46669 17.5974 7.55654 17.4839 7.73624C16.5461 9.22123 13.7545 12.9753 9.50034 12.9753C5.24617 12.9753 2.45461 9.22123 1.51677 7.73624Z" stroke="#6D7A8D" stroke-width="1.3" stroke-linecap="round" stroke-linejoin="round"/>
<path d="M9.50034 9.64193C10.881 9.64193 12.0003 8.52264 12.0003 7.14193C12.0003 5.76122 10.881 4.64193 9.50034 4.64193C8.11962 4.64193 7.00034 5.76122 7.00034 7.14193C7.00034 8.52264 8.11962 9.64193 9.50034 9.64193Z" stroke="#6D7A8D" stroke-width="1.3" stroke-linecap="round" stroke-linejoin="round"/>
</svg>
